HIERARCHY
ROOT Hips
{
	OFFSET -3.958830 18.904000 13.208200
	CHANNELS 6 Xposition Yposition Zposition Zrotation Yrotation Xrotation 
	JOINT LHipJoint
	{
		OFFSET 0.000000 0.000000 0.000000
		CHANNELS 3 Zrotation Yrotation Xrotation
		JOINT LeftUpLeg
		{
			OFFSET 1.800000 -1.400000 0.085000
			CHANNELS 3 Zrotation Yrotation Xrotation
			JOINT LeftLeg
			{
				OFFSET 2.215000 -6.000000 0.000000
				CHANNELS 3 Zrotation Yrotation Xrotation
				JOINT LeftFoot
				{
					OFFSET 2.500000 -6.900000 0.000000
					CHANNELS 3 Zrotation Yrotation Xrotation
					JOINT LeftToeBase
					{
						OFFSET 0.200000 -0.500000 1.950000
						CHANNELS 3 Zrotation Yrotation Xrotation
						End Site
						{
							OFFSET 0.000000 0.000000 0.000000
						}
					}
				}
			}
		}
	}
	JOINT RHipJoint
	{
		OFFSET 0.000000 0.000000 0.000000
		CHANNELS 3 Zrotation Yrotation Xrotation
		JOINT RightUpLeg
		{
			OFFSET -1.800000 -1.400000 0.085000
			CHANNELS 3 Zrotation Yrotation Xrotation
			JOINT RightLeg
			{
				OFFSET -2.215000 -6.000000 0.000000
				CHANNELS 3 Zrotation Yrotation Xrotation
				JOINT RightFoot
				{
					OFFSET -2.500000 -6.900000 0.000000
					CHANNELS 3 Zrotation Yrotation Xrotation
					JOINT RightToeBase
					{
						OFFSET -0.200000 -0.500000 1.950000
						CHANNELS 3 Zrotation Yrotation Xrotation
						End Site
						{
							OFFSET 0.000000 0.000000 0.000000
						}
					}
				}
			}
		}
	}
	JOINT LowerBack
	{
		OFFSET 0.000000 0.000000 0.000000
		CHANNELS 3 Zrotation Yrotation Xrotation
		JOINT Spine
		{
			OFFSET -0.087000 1.940000 -0.288900
			CHANNELS 3 Zrotation Yrotation Xrotation
			JOINT Spine1
			{
				OFFSET 0.000000 1.950000 0.060000
				CHANNELS 3 Zrotation Yrotation Xrotation
				JOINT Neck
				{
					OFFSET 0.000000 0.000000 0.000000
					CHANNELS 3 Zrotation Yrotation Xrotation
					JOINT Neck1
					{
						OFFSET 0.000000 1.600000 0.340000
						CHANNELS 3 Zrotation Yrotation Xrotation
						JOINT Head
						{
							OFFSET 0.000000 1.667000 -0.240000
							CHANNELS 3 Zrotation Yrotation Xrotation
							End Site
							{
								OFFSET 0.000000 0.000000 0.000000
							}
						}
					}
				}
				JOINT LeftShoulder
				{
					OFFSET 0.000000 0.000000 0.000000
					CHANNELS 3 Zrotation Yrotation Xrotation
					JOINT LeftArm
					{
						OFFSET 2.700000 1.550000 -0.730000
						CHANNELS 3 Zrotation Yrotation Xrotation
						JOINT LeftForeArm
						{
							OFFSET 5.450000 0.000000 0.000000
							CHANNELS 3 Zrotation Yrotation Xrotation
							JOINT LeftHand
							{
								OFFSET 3.450000 0.000000 0.000000
								CHANNELS 3 Zrotation Yrotation Xrotation
								JOINT LeftHandIndex1
								{
									OFFSET 0.750000 0.000000 0.000000
									CHANNELS 3 Zrotation Yrotation Xrotation
									End Site
									{
										OFFSET 0.000000 0.000000 0.000000
									}
								}
							}
						}
					}
				}
				JOINT RightShoulder
				{
					OFFSET 0.000000 0.000000 0.000000
					CHANNELS 3 Zrotation Yrotation Xrotation
					JOINT RightArm
					{
						OFFSET -2.700000 1.550000 -0.730000
						CHANNELS 3 Zrotation Yrotation Xrotation
						JOINT RightForeArm
						{
							OFFSET -5.450000 0.000000 0.000000
							CHANNELS 3 Zrotation Yrotation Xrotation
							JOINT RightHand
							{
								OFFSET -3.450000 0.000000 0.000000
								CHANNELS 3 Zrotation Yrotation Xrotation
								JOINT RightHandIndex1
								{
									OFFSET -0.750000 0.000000 0.000000
									CHANNELS 3 Zrotation Yrotation Xrotation
									End Site
									{
										OFFSET 0.000000 0.000000 0.000000
									}
								}
							}
						}
					}
				}
			}
		}
	}
}
MOTION
Frames: 8
Frame Time: 0.016667
-14.889590 16.439480 8.080040 -0.579031 39.424536 2.223613 -15.018887 11.809221 3.586665 6.286411 -3.305605 -29.329188 -5.054609 2.203530 0.056971 -1.392545 2.353263 3.706976 1.625590 1.023060 1.240680 18.574301 -10.859625 2.900400 1.536278 -1.115236 -2.465713 8.025762 -4.879477 7.325323 -0.849843 -3.970232 2.943476 0.786330 -0.312780 0.140980 -5.256860 -0.012685 -7.858304 20.501070 -1.940900 17.804689 -11.685884 2.657318 -0.857544 -0.873810 -10.297604 -5.537596 -17.754258 8.534755 21.613723 9.515400 0.599630 -29.304560 -15.178498 4.512149 -1.577409 -4.635400 6.890928 -0.163658 -12.297627 -52.224862 5.010944 -2.787057 3.890740 1.146530 -0.443260 0.232060 0.448780 15.045214 3.244466 3.116805 5.041615 -3.276081 -2.561279 29.769933 63.528601 16.006786 1.886404 -2.356992 -0.243120 0.144680 -0.658180 -0.468310 
-14.884000 16.429860 8.086630 -0.782750 39.406637 2.192857 -15.017017 11.780728 3.597088 6.589381 -3.259533 -29.751516 -5.125476 2.257629 0.311767 -1.407811 2.371745 3.699671 1.622770 1.017650 1.252920 18.580849 -10.857196 2.907796 1.757602 -1.163072 -2.427046 7.953178 -4.849416 7.169065 -0.845374 -3.965817 2.948714 0.789860 -0.311300 0.131210 -5.265636 0.031001 -7.865150 20.551185 -1.797461 17.430239 -11.665665 2.805939 -1.065608 -0.775271 -10.061014 -5.296054 -17.229690 8.393459 21.786241 9.171570 0.803000 -29.158290 -15.037240 4.623656 -1.728424 -4.391838 6.562389 -0.214384 -7.940952 -47.981780 2.992479 -2.784151 3.836035 1.152990 -0.436830 0.227000 0.442830 14.631822 3.047931 2.849109 5.334303 -2.754515 -3.012635 21.966955 60.126004 11.229453 1.851869 -2.310807 -0.259500 0.151670 -0.661010 -0.479860 
-14.876550 16.417300 8.091600 -0.810459 39.443658 2.287604 -15.020094 11.752879 3.619246 6.806511 -3.255039 -30.141857 -5.309654 2.303653 0.428382 -1.422414 2.401951 3.699878 1.616710 1.015820 1.255990 18.582081 -10.843706 2.904227 1.685282 -1.173170 -2.402269 8.134741 -4.866290 7.020798 -0.839137 -3.983412 2.956406 0.799200 -0.292890 0.117890 -5.254734 0.039242 -7.871342 20.319958 -1.653482 16.963306 -11.407776 2.846324 -1.148764 -0.708836 -9.823675 -5.049494 -16.714910 8.272092 21.913517 8.740340 0.973080 -28.770350 -15.029914 4.710543 -1.815809 -4.319896 6.296899 -0.261932 -4.132304 -43.902829 1.503563 -2.798063 3.759922 1.152410 -0.417410 0.215460 0.444820 14.449002 2.875818 2.533405 5.321785 -1.846453 -3.249280 15.589672 56.336942 7.685348 1.823036 -2.249346 -0.282260 0.172980 -0.664870 -0.486060 
-14.870710 16.414130 8.095680 -0.492508 39.416906 2.321529 -15.020673 11.747519 3.636352 6.770292 -3.262136 -29.981472 -5.690577 2.326345 0.225341 -1.417082 2.433380 3.701867 1.595100 1.004810 1.243580 18.577671 -10.849720 2.901113 1.446371 -1.218697 -2.173102 8.021499 -4.849585 6.884081 -0.836156 -3.991592 2.966377 0.800060 -0.279820 0.099550 -5.246925 0.044616 -7.886837 19.887221 -1.522057 16.969891 -11.269707 2.915543 -1.405854 -0.740667 -9.703266 -4.830241 -16.516053 8.087246 22.294367 8.720520 0.946420 -28.790040 -15.193150 4.780748 -1.971893 -3.922264 5.730220 -0.225337 -1.208186 -39.921468 0.575053 -2.814776 3.674690 1.149910 -0.409290 0.210520 0.441270 14.606107 2.779995 2.321284 5.187212 -1.060428 -3.414621 10.367821 52.579477 5.119899 1.815895 -2.167544 -0.300480 0.199390 -0.659710 -0.486710 
-14.866930 16.417330 8.097850 -0.276643 39.502908 2.102758 -15.030383 11.753785 3.682133 6.849087 -3.226211 -29.562046 -6.540382 2.350790 -0.451328 -1.372372 2.503330 3.699535 1.556010 0.987390 1.207530 18.560358 -10.829447 2.898618 1.258578 -1.308377 -1.744708 7.891860 -4.850654 6.761042 -0.836308 -4.005897 2.995508 0.788750 -0.263420 0.078160 -5.213354 -0.020974 -7.935709 19.539204 -1.567266 17.493487 -11.109082 2.928136 -1.937029 -0.740519 -9.706943 -4.832207 -16.654731 7.991481 22.881515 8.767700 0.950140 -28.885470 -15.307370 4.855162 -2.026338 -3.915499 5.325478 -0.278284 1.463933 -36.363738 -0.097278 -2.834745 3.563134 1.142830 -0.398250 0.211460 0.445950 14.699039 2.808773 2.298585 5.169445 -0.599438 -3.579237 5.886866 48.943567 3.212783 1.820439 -2.073395 -0.314610 0.226740 -0.660140 -0.476810 
-14.854890 16.420650 8.099270 -0.452247 39.498575 1.672523 -15.028858 11.792667 3.668181 7.038074 -3.078349 -29.205361 -6.612006 2.383872 -0.480890 -1.305624 2.481299 3.722236 1.537930 1.012280 1.179040 18.551268 -10.842960 2.918090 1.306998 -1.432082 -1.334948 7.760304 -4.848780 6.687329 -0.845685 -4.021486 3.029653 0.788090 -0.267310 0.062450 -5.227478 -0.031329 -7.957282 19.921393 -1.748020 17.870883 -11.316436 2.902438 -2.570149 -0.640690 -9.742175 -4.887530 -16.869536 8.023515 23.689868 8.585520 1.132670 -28.962940 -15.107479 5.178767 -2.072296 -4.395451 4.676029 -0.365265 3.848714 -32.695869 -0.508916 -2.839478 3.459246 1.119900 -0.390650 0.234650 0.464100 14.251153 2.615976 2.291859 5.881897 0.287835 -3.665961 1.807080 45.522711 1.742938 1.842471 -1.990990 -0.301410 0.232970 -0.694450 -0.450480 
-14.835120 16.410870 8.105140 -0.561228 39.505260 1.847452 -15.019414 11.816362 3.629636 6.927440 -3.070950 -29.329057 -5.956587 2.370675 0.012419 -1.301287 2.406522 3.751254 1.538370 1.030190 1.166000 18.554941 -10.879373 2.930616 1.192869 -1.403408 -1.463327 7.974110 -4.873847 6.685369 -0.839788 -4.036262 3.035893 0.798060 -0.261060 0.063100 -5.262978 0.023876 -7.933853 20.173055 -1.636666 17.296276 -11.415246 2.906196 -3.140026 -0.669427 -9.572147 -4.693070 -16.543305 8.116377 24.070105 8.542280 1.252450 -28.380430 -14.576978 5.843459 -2.267981 -4.882581 3.533524 -0.248298 5.325929 -29.101799 -0.673798 -2.867237 3.409472 1.099110 -0.375570 0.234340 0.474380 13.700750 1.898198 2.084212 6.979410 1.624013 -3.528186 -1.866845 42.035683 0.595993 1.848844 -1.938122 -0.293590 0.228760 -0.706350 -0.438850 
-14.814130 16.400360 8.109670 -0.709572 39.578383 2.340014 -15.019042 11.820197 3.640436 6.697822 -3.181008 -29.878052 -5.331231 2.310565 0.279639 -1.328044 2.358012 3.766556 1.535680 1.013890 1.167700 18.553096 -10.896655 2.927262 1.315451 -1.284558 -2.012094 7.946574 -4.851629 6.889026 -0.816772 -4.007491 3.032962 0.795050 -0.245110 0.082130 -5.263726 0.053103 -7.918650 20.175575 -1.334527 16.478772 -11.161198 2.963750 -3.994617 -0.703017 -9.231518 -4.402397 -15.809716 8.226476 24.224768 8.314480 1.457940 -27.423030 -13.635086 6.903773 -2.564083 -6.254469 1.917191 -0.127445 6.704142 -25.758207 -0.837419 -2.927247 3.374838 1.090440 -0.355040 0.218680 0.470980 12.765208 0.765027 1.752800 8.799749 3.583161 -3.232795 -5.555086 37.839019 -0.381606 1.857092 -1.888043 -0.295560 0.214110 -0.693950 -0.444090 
